<?xml version="1.0" encoding="UTF-8" standalone="no"?><!DOCTYPE svg PUBLIC "-//W3C//DTD SVG 1.1//EN" "http://www.w3.org/Graphics/SVG/1.1/DTD/svg11.dtd"><svg width="100%" height="100%" viewBox="0 0 100 125" version="1.1" xmlns="http://www.w3.org/2000/svg" xmlns:xlink="http://www.w3.org/1999/xlink" xml:space="preserve" style="fill-rule:evenodd;clip-rule:evenodd;stroke-linejoin:round;stroke-miterlimit:1.41421;"><path d="M50.008,34.338l-43.071,0l0,-8.144l43.071,-23.18l43.07,23.18l0,8.144l-43.07,0Zm46.986,60.299l-1.253,-5.952c-0.157,-0.94 -0.94,-1.566 -1.88,-1.566l-87.707,0c-0.939,0 -1.722,0.626 -1.879,1.566l-1.253,5.952c-0.313,1.253 0.626,2.349 1.879,2.349l90.057,0c1.253,0 2.192,-1.096 2.036,-2.349Zm-72.515,-9.398l0,-49.022l-7.831,0l0,49.022l7.831,0Zm19.577,0l0,-49.022l-7.831,0l0,49.022l7.831,0Zm19.734,0l0,-49.022l-7.831,0l0,49.022l7.831,0Zm19.578,0l0,-49.022l-7.831,0l0,49.022l7.831,0Z" style="fill:#3b3b3b;fill-rule:nonzero;"/></svg>