<?xml version="1.0" encoding="UTF-8" standalone="no"?>
<svg
   xmlns:dc="http://purl.org/dc/elements/1.1/"
   xmlns:cc="http://creativecommons.org/ns#"
   xmlns:rdf="http://www.w3.org/1999/02/22-rdf-syntax-ns#"
   xmlns:svg="http://www.w3.org/2000/svg"
   xmlns="http://www.w3.org/2000/svg"
   xml:space="preserve"
   style="enable-background:new 0 0 192 192;"
   viewBox="0 0 192 192"
   y="0px"
   x="0px"
   id="Ebene_2"
   version="1.1"><metadata
     id="metadata21"><rdf:RDF><cc:Work
         rdf:about=""><dc:format>image/svg+xml</dc:format><dc:type
           rdf:resource="http://purl.org/dc/dcmitype/StillImage" /></cc:Work></rdf:RDF></metadata><defs
     id="defs19" /><style
     id="style2"
     type="text/css">
	.st0{fill:#3B3B3B;}
</style><path
     id="path4"
     d="M172,65.6v76c0,8.4-6.8,15.2-15.2,15.2H35.2c-8.4,0-15.2-6.8-15.2-15.2V50.4c0-8.4,6.8-15.2,15.2-15.2h45.6  L96,50.4h60.8C165.2,50.4,172,57.2,172,65.6z"
     class="st0" /><path
     id="path6"
     d="M93.7,36.9l10,10c0.2,0.2,0.4,0.3,0.7,0.3h17.2c0.9,0,1.3-1.1,0.7-1.7l-10-10c-0.2-0.2-0.4-0.3-0.7-0.3H94.4  C93.5,35.2,93.1,36.3,93.7,36.9z"
     class="st0" /><path
     id="path8"
     d="M122.9,36.9l10,10c0.2,0.2,0.4,0.3,0.7,0.3h17.2c0.9,0,1.3-1.1,0.7-1.7l-10-10c-0.2-0.2-0.4-0.3-0.7-0.3h-17.2  C122.7,35.2,122.3,36.3,122.9,36.9z"
     class="st0" /><g
     id="g14"><g
       id="g12"><path
         id="path10"
         d="M104.4,39.5c1.9,0,1.9-3,0-3C102.5,36.5,102.5,39.5,104.4,39.5L104.4,39.5z"
         class="st0" /></g></g></svg>