<?xml version="1.0" encoding="UTF-8" standalone="no"?>
<svg
   xmlns:dc="http://purl.org/dc/elements/1.1/"
   xmlns:cc="http://creativecommons.org/ns#"
   xmlns:rdf="http://www.w3.org/1999/02/22-rdf-syntax-ns#"
   xmlns:svg="http://www.w3.org/2000/svg"
   xmlns="http://www.w3.org/2000/svg"
   xml:space="preserve"
   style="enable-background:new 0 0 192 192;"
   viewBox="0 0 192 192"
   y="0px"
   x="0px"
   id="Ebene_2"
   version="1.1"><metadata
     id="metadata15"><rdf:RDF><cc:Work
         rdf:about=""><dc:format>image/svg+xml</dc:format><dc:type
           rdf:resource="http://purl.org/dc/dcmitype/StillImage" /></cc:Work></rdf:RDF></metadata><defs
     id="defs13" /><style
     id="style2"
     type="text/css">
	.st0{fill:#3B3B3B;}
</style><path
     id="path4"
     d="M145.5,51.7c-21.2,0-38.4,16.6-38.4,37.2c0,27.9,38.4,69,38.4,69s38.4-41.2,38.4-69  C183.8,68.3,166.7,51.7,145.5,51.7z M145.5,102.1c-7.6,0-13.7-5.9-13.7-13.3s6.1-13.3,13.7-13.3c7.6,0,13.7,5.9,13.7,13.3  S153,102.1,145.5,102.1z"
     class="st0" /><path
     id="path6"
     d="M32.7,8C19,8,8,18.7,8,31.9c0,17.9,24.7,44.4,24.7,44.4s24.7-26.4,24.7-44.4C57.3,18.7,46.3,8,32.7,8z   M32.7,40.4c-4.9,0-8.8-3.8-8.8-8.5s3.9-8.5,8.8-8.5s8.8,3.8,8.8,8.5S37.5,40.4,32.7,40.4z"
     class="st0" /><path
     id="path8"
     d="M152.3,163.1l-89.7-16.8c-4.5-1.6-6.1-7.1-3-10.7l28.9-22.4c2.7-3.1,2.1-7.8-1.2-10.2L52.1,81.1c0,0,0,0-0.1,0  l-0.7-0.4c0,0,0,0,0,0c-3.5-2-10.1-3.1-17.6-3.1c-11.3,0-20.4,2.4-20.4,6.7c0,3,4.4,5.3,10.9,6.4l44.5,12.7  c6.9,3.3,5.5,7.5,2.3,11.1l-33.8,24.8c-4.2,4.7-2.5,12,3.3,14.6l85.1,27.1v0c5,1.8,11.7,2.9,19.1,2.9c15.4,0,27.8-4.8,27.8-10.6  C172.8,168.5,164.1,164.4,152.3,163.1z M33.7,88.4c-6.8,0-12.3-1.5-12.3-4.1c0-2.6,5.5-3.6,12.3-3.6s12.3,1,12.3,3.6  C46.1,86.9,40.5,88.4,33.7,88.4z M145,179.8c-9.3,0-16.8-2.9-16.8-6.4c0-3.6,7.5-6.4,16.8-6.4s16.8,2.9,16.8,6.4  C161.8,176.9,154.3,179.8,145,179.8z"
     class="st0" /></svg>