<?xml version="1.0" encoding="UTF-8" standalone="no"?><!DOCTYPE svg PUBLIC "-//W3C//DTD SVG 1.1//EN" "http://www.w3.org/Graphics/SVG/1.1/DTD/svg11.dtd"><svg width="100%" height="100%" viewBox="0 0 100 125" version="1.1" xmlns="http://www.w3.org/2000/svg" xmlns:xlink="http://www.w3.org/1999/xlink" xml:space="preserve" style="fill-rule:evenodd;clip-rule:evenodd;stroke-linejoin:round;stroke-miterlimit:1.41421;"><path d="M87.54,43.13l-28.09,33.64c-1.838,2.198 -2.847,4.974 -2.85,7.84l0,11.3c0,1.695 -1.395,3.09 -3.09,3.09l-7.17,0c-1.695,0 -3.09,-1.395 -3.09,-3.09l0,-11.35c-0.002,-2.856 -1.003,-5.624 -2.83,-7.82l-27.84,-33.46c-1.42,-1.532 -2.215,-3.541 -2.23,-5.63c0,-4.13 3,-7.21 7.5,-9.48c1.078,2.805 2.969,5.225 5.43,6.95c-2.28,0.88 -3.7,1.8 -4.28,2.54c1.78,2.43 13.24,6.55 31,6.55c17.76,0 29.18,-4.12 31,-6.55c-0.7,-1 -2.93,-2.18 -6.43,-3.3c3.089,-1.155 5.637,-3.424 7.14,-6.36c4.75,2.28 7.93,5.42 7.93,9.68c-0.018,2.01 -0.765,3.947 -2.1,5.45l0,0Zm-55.65,-27.91c-4.164,0 -7.59,3.426 -7.59,7.59c0,4.164 3.426,7.59 7.59,7.59c4.164,0 7.59,-3.426 7.59,-7.59c0,-4.164 -3.426,-7.59 -7.59,-7.59l0,0Zm13.74,13.58c0,3.132 2.578,5.71 5.71,5.71c3.132,0 5.71,-2.578 5.71,-5.71c0,-3.132 -2.578,-5.71 -5.71,-5.71c-3.132,0 -5.71,2.578 -5.71,5.71Zm24.37,-12.5c-0.003,0 -0.007,0 -0.01,0c-3.132,0 -5.71,2.578 -5.71,5.71c0,3.132 2.578,5.71 5.71,5.71c3.132,0 5.71,-2.578 5.71,-5.71c0,-0.003 0,-0.007 0,-0.01c-0.005,-3.125 -2.575,-5.695 -5.7,-5.7Zm-8.65,-6.84c0,-4.641 -3.819,-8.46 -8.46,-8.46c-4.641,0 -8.46,3.819 -8.46,8.46c0,4.641 3.819,8.46 8.46,8.46c4.641,0 8.46,-3.819 8.46,-8.46Z" style="fill:#3b3b3b;fill-rule:nonzero;"/></svg>