<?xml version="1.0" encoding="UTF-8" standalone="no"?>
<svg
   xmlns:dc="http://purl.org/dc/elements/1.1/"
   xmlns:cc="http://creativecommons.org/ns#"
   xmlns:rdf="http://www.w3.org/1999/02/22-rdf-syntax-ns#"
   xmlns:svg="http://www.w3.org/2000/svg"
   xmlns="http://www.w3.org/2000/svg"
   xml:space="preserve"
   style="enable-background:new 0 0 192 192;"
   viewBox="0 0 192 192"
   y="0px"
   x="0px"
   id="Ebene_2"
   version="1.1"><metadata
     id="metadata16"><rdf:RDF><cc:Work
         rdf:about=""><dc:format>image/svg+xml</dc:format><dc:type
           rdf:resource="http://purl.org/dc/dcmitype/StillImage" /></cc:Work></rdf:RDF></metadata><defs
     id="defs14" /><style
     id="style2"
     type="text/css">
	.st0{fill:#3B3B3B;}
</style><g
     transform="matrix(1.25,0,0,-1.25,5.6381386,65.773003)"
     id="g112"><path
       d="M107.5-49.8c0,7.3,6.1,13.1,13.4,12.8   c6.5-0.3,11.9-5.6,12.2-12.2c0.3-7.3-5.5-13.4-12.8-13.4C113.2-62.6,107.5-56.8,107.5-49.8"
       class="st0"
       id="path114" /></g><g
     transform="matrix(1.25,0,0,-1.25,5.6381386,65.773003)"
     id="g112_1_"><path
       d="M17.9-49.8c0,7.3,6.1,13.1,13.4,12.8   c6.5-0.3,11.9-5.6,12.2-12.2c0.3-7.3-5.5-13.4-12.8-13.4C23.6-62.6,17.9-56.8,17.9-49.8"
       class="st0"
       id="path114_1_" /></g><g
     transform="matrix(1.25,0,0,-1.25,3.0357386,47.569873)"
     id="g120"><path
       d="M114.4-16.3h10.3c0.6,0,1.1-0.3,1.4-0.8l11-19.2   c0.6-1.1-0.2-2.4-1.4-2.4h-21.2c-0.9,0-1.6,0.7-1.6,1.6v19.2C112.8-17.1,113.5-16.3,114.4-16.3z M4.7-47.3l5.3-16   c0.2-0.7,0.8-1.1,1.5-1.1h3.9c0.8,0,1.4,0.5,1.6,1.3c0.8,3.8,4.3,14.7,15.8,14.7c13.3,0,15.5-10.6,15.9-14.6   c0.1-0.8,0.8-1.4,1.6-1.4h54.6c0.8,0,1.5,0.6,1.6,1.4c0.4,3.9,2.8,14.6,15.9,14.6s15.5-10.7,15.9-14.6c0.1-0.8,0.8-1.4,1.6-1.4h3.3   c0.9,0,1.6,0.7,1.6,1.6v26.8c0,0.2-0.1,0.5-0.2,0.7l-12.2,24.4c-0.3,0.5-0.8,0.9-1.4,0.9h-26.2c-0.9,0-1.6-0.7-1.6-1.6v-32   c0-0.9-0.7-1.6-1.6-1.6H6.2C5.1-45.1,4.3-46.2,4.7-47.3z"
       class="st0"
       id="path122" /></g><path
     d="M126,36H10c-1.1,0-2,0.9-2,2v60c0,1.1,0.9,2,2,2h116  c1.1,0,2-0.9,2-2V38C128,36.9,127.1,36,126,36z"
     class="st0"
     id="path11708" /></svg>