<?xml version="1.0" encoding="UTF-8" standalone="no"?>
<!DOCTYPE svg PUBLIC "-//W3C//DTD SVG 1.1//EN" "http://www.w3.org/Graphics/SVG/1.1/DTD/svg11.dtd">
<svg width="100%" height="100%" viewBox="0 0 100 100" version="1.1" xmlns="http://www.w3.org/2000/svg" xmlns:xlink="http://www.w3.org/1999/xlink" xml:space="preserve" style="fill-rule:evenodd;clip-rule:evenodd;stroke-linejoin:round;stroke-miterlimit:1.41421;">
    <g>
        <path d="M74.05,67.585C72.747,68.888 70.637,68.89 69.334,67.585L64.277,62.528C62.974,61.229 62.974,59.114 64.277,57.815C65.58,56.512 67.689,56.512 68.992,57.813L74.049,62.87C75.352,64.173 75.352,66.284 74.05,67.585Z" style="fill:rgb(59,59,59);fill-rule:nonzero;"/>
        <path d="M68.166,73.47C66.863,74.773 64.608,74.628 63.129,73.148L55.985,66.002C54.505,64.523 54.359,62.268 55.663,60.966C56.964,59.664 59.221,59.809 60.698,61.289L67.845,68.43C69.326,69.91 69.469,72.167 68.166,73.47Z" style="fill:rgb(59,59,59);fill-rule:nonzero;"/>
        <path d="M62.283,79.353C60.982,80.656 58.725,80.511 57.245,79.031L51.132,72.915C49.652,71.435 49.508,69.18 50.81,67.877C52.111,66.576 54.366,66.72 55.847,68.198L61.963,74.313C63.44,75.793 63.584,78.05 62.283,79.353Z" style="fill:rgb(59,59,59);fill-rule:nonzero;"/>
        <path d="M49.395,74.067L49.228,74.236C49.311,74.216 49.392,74.186 49.476,74.172C49.445,74.14 49.423,74.102 49.395,74.067Z" style="fill:rgb(59,59,59);fill-rule:nonzero;"/>
        <path d="M56.402,85.233C55.099,86.536 52.844,86.391 51.363,84.911L48.546,82.094C47.066,80.614 46.923,78.359 48.224,77.056C49.529,75.753 51.782,75.897 53.262,77.377L56.079,80.194C57.561,81.676 57.706,83.929 56.402,85.233Z" style="fill:rgb(59,59,59);fill-rule:nonzero;"/>
        <path d="M63.066,28.185L52.961,28.189C52.839,28.189 52.724,28.21 52.604,28.22L39.427,28.22C37.706,28.22 35.309,29.223 34.101,30.45L18.311,46.485C17.103,47.711 17.111,49.71 18.327,50.927L25.633,58.232C26.849,59.449 28.841,59.449 30.057,58.232L51.564,36.725C52.351,35.937 53.636,35.247 54.912,34.854L63.066,34.856C65.159,34.857 66.855,33.364 66.855,31.522C66.855,29.68 65.159,28.185 63.066,28.185Z" style="fill:rgb(59,59,59);fill-rule:nonzero;"/>
        <path d="M34.254,23.347L28.38,14.427C27.162,13.209 25.171,13.209 23.952,14.427L2.949,35.024C1.731,36.241 1.731,38.232 2.949,39.449L12.276,45.324C13.494,46.541 15.485,46.541 16.703,45.324L34.254,27.773C35.473,26.556 35.473,24.564 34.254,23.347ZM10.769,40.953C9.669,40.953 8.776,40.061 8.776,38.96C8.776,37.859 9.669,36.967 10.769,36.967C11.869,36.967 12.762,37.859 12.762,38.96C12.762,40.061 11.868,40.953 10.769,40.953Z" style="fill:rgb(59,59,59);fill-rule:nonzero;"/>
        <path d="M67.157,28.693L84.709,46.244C85.927,47.461 87.918,47.461 89.137,46.244L98.464,40.369C99.682,39.151 99.682,37.161 98.464,35.943L77.459,15.347C76.24,14.13 74.25,14.13 73.031,15.347L67.157,24.267C65.939,25.484 65.939,27.476 67.157,28.693ZM88.651,39.88C88.651,38.779 89.544,37.887 90.643,37.887C91.742,37.887 92.636,38.779 92.636,39.88C92.636,40.981 91.742,41.873 90.643,41.873C89.544,41.873 88.651,40.98 88.651,39.88Z" style="fill:rgb(59,59,59);fill-rule:nonzero;"/>
        <path d="M83.049,46.532L68.852,32.336C68.657,33.514 68.066,34.619 67.125,35.446C66.029,36.411 64.588,36.943 63.068,36.943L55.245,36.941C54.349,37.255 53.506,37.734 53.04,38.2L31.532,59.708C30.738,60.502 29.724,60.99 28.63,61.156L28.307,61.475C27.004,62.778 27.004,64.887 28.307,66.19C29.608,67.493 31.721,67.495 33.022,66.19L45.4,53.843C45.569,53.674 45.803,53.568 46.062,53.568C46.581,53.568 47,53.987 47,54.505C47,54.764 46.896,54.999 46.725,55.17L46.732,55.177L32.122,69.789C30.642,71.269 30.498,73.522 31.8,74.827C33.101,76.128 35.358,75.984 36.837,74.504L51.464,59.91C51.635,59.739 51.868,59.633 52.127,59.633C52.647,59.633 53.065,60.054 53.065,60.571C53.065,60.83 52.959,61.065 52.788,61.235L52.792,61.237L38.479,75.55C37,77.03 36.857,79.285 38.158,80.588C39.461,81.891 41.716,81.747 43.196,80.267L45.421,78.042C45.633,77.131 46.059,76.274 46.751,75.581C47.432,74.901 48.291,74.452 49.229,74.236L49.396,74.067C48.492,73.044 47.932,71.786 47.847,70.462C47.748,68.925 48.292,67.444 49.336,66.4C50.292,65.446 51.586,64.918 52.982,64.905C52.808,64.346 52.688,63.771 52.688,63.189C52.688,61.77 53.221,60.457 54.192,59.488C55.157,58.523 56.47,57.99 57.889,57.99C59.098,57.99 60.3,58.392 61.32,59.107C61.526,58.065 62.037,57.105 62.805,56.338C63.827,55.316 65.188,54.751 66.636,54.751C68.084,54.751 69.445,55.315 70.469,56.34L74.634,60.504L83.05,51.929C84.533,50.446 84.533,48.017 83.049,46.532Z" style="fill:rgb(59,59,59);fill-rule:nonzero;"/>
    </g>
</svg>
