<?xml version="1.0" encoding="UTF-8" standalone="no"?><!DOCTYPE svg PUBLIC "-//W3C//DTD SVG 1.1//EN" "http://www.w3.org/Graphics/SVG/1.1/DTD/svg11.dtd"><svg width="100%" height="100%" viewBox="0 0 150 27" version="1.1" xmlns="http://www.w3.org/2000/svg" xmlns:xlink="http://www.w3.org/1999/xlink" xml:space="preserve" xmlns:serif="http://www.serif.com/" style="fill-rule:evenodd;clip-rule:evenodd;stroke-linejoin:round;stroke-miterlimit:1.41421;"><path d="M44.479,18.502l0,2.887l-9.403,0l0,-15.794l3.555,0l0,12.907l5.848,0Z" style="fill:#fff;fill-rule:nonzero;"/><path d="M59.873,7.547c-1.393,-1.477 -3.212,-2.211 -5.456,-2.211c-2.387,0 -4.306,0.767 -5.749,2.311c-1.452,1.544 -2.17,3.563 -2.17,6.057c0,2.362 0.71,4.281 2.136,5.757c1.427,1.477 3.271,2.211 5.532,2.211c2.32,0 4.197,-0.759 5.64,-2.286c1.444,-1.518 2.161,-3.521 2.161,-5.999c-0.008,-2.419 -0.7,-4.363 -2.094,-5.84Zm-2.736,9.72c-0.718,0.885 -1.694,1.327 -2.921,1.327c-1.185,0 -2.152,-0.451 -2.887,-1.369c-0.734,-0.909 -1.101,-2.144 -1.101,-3.712c0,-1.544 0.367,-2.779 1.101,-3.713c0.735,-0.935 1.736,-1.402 2.979,-1.402c1.21,0 2.161,0.459 2.854,1.368c0.7,0.91 1.051,2.186 1.051,3.822c0.008,1.56 -0.359,2.786 -1.076,3.679Z" style="fill:#fff;fill-rule:nonzero;"/><path d="M78.421,12.394l0,7.935c-1.544,0.893 -3.463,1.335 -5.749,1.335c-2.536,0 -4.547,-0.701 -6.007,-2.111c-1.46,-1.41 -2.195,-3.346 -2.195,-5.815c0,-2.478 0.801,-4.506 2.395,-6.066c1.594,-1.569 3.73,-2.353 6.383,-2.353c1.669,0 3.145,0.234 4.422,0.693l0,3.337c-1.218,-0.701 -2.703,-1.06 -4.472,-1.06c-1.477,0 -2.678,0.484 -3.613,1.444c-0.926,0.959 -1.393,2.236 -1.393,3.83c0,1.627 0.417,2.878 1.251,3.771c0.835,0.884 1.961,1.326 3.379,1.326c0.851,0 1.527,-0.116 2.019,-0.367l0,-3.087l-3.162,0l0,-2.837l6.742,0l0,0.025Z" style="fill:#fff;fill-rule:nonzero;"/><path d="M91.846,18.502l0,2.887l-9.47,0l0,-15.794l9.102,0l0,2.895l-5.548,0l0,3.512l5.165,0l0,2.887l-5.165,0l0,3.613l5.916,0Z" style="fill:#fff;fill-rule:nonzero;"/><path d="M109.459,5.595l0,15.794l-3.596,0l-6.5,-9.921c-0.384,-0.584 -0.651,-1.018 -0.801,-1.31l-0.042,0c0.059,0.559 0.084,1.41 0.084,2.554l0,8.677l-3.354,0l0,-15.794l3.829,0l6.266,9.611c0.284,0.434 0.551,0.86 0.793,1.285l0.042,0c-0.059,-0.367 -0.084,-1.093 -0.084,-2.169l0,-8.727l3.363,0Z" style="fill:#fff;fill-rule:nonzero;"/><rect x="113.948" y="5.595" width="3.554" height="15.794" style="fill:#fff;"/><path d="M134.373,7.547c-1.394,-1.477 -3.213,-2.211 -5.457,-2.211c-2.386,0 -4.305,0.767 -5.749,2.311c-1.443,1.544 -2.169,3.563 -2.169,6.057c0,2.362 0.709,4.281 2.136,5.757c1.427,1.477 3.27,2.211 5.532,2.211c2.319,0 4.196,-0.759 5.64,-2.286c1.443,-1.518 2.161,-3.521 2.161,-5.999c-0.009,-2.419 -0.709,-4.363 -2.094,-5.84Zm-2.737,9.72c-0.718,0.885 -1.694,1.327 -2.92,1.327c-1.185,0 -2.153,-0.451 -2.887,-1.369c-0.734,-0.909 -1.102,-2.144 -1.102,-3.712c0,-1.544 0.368,-2.779 1.102,-3.713c0.742,-0.935 1.735,-1.402 2.978,-1.402c1.21,0 2.161,0.459 2.854,1.368c0.701,0.91 1.051,2.186 1.051,3.822c0.009,1.56 -0.359,2.786 -1.076,3.679Z" style="fill:#fff;fill-rule:nonzero;"/><path d="M150,16.95c0,0.884 -0.167,1.619 -0.501,2.219c-0.333,0.601 -0.784,1.085 -1.36,1.452c-0.575,0.367 -1.243,0.634 -2.002,0.793c-0.759,0.167 -1.56,0.25 -2.403,0.25c-0.868,0 -1.694,-0.075 -2.47,-0.225c-0.776,-0.15 -1.46,-0.367 -2.027,-0.659l0,-3.521c0.634,0.534 1.326,0.934 2.077,1.21c0.751,0.267 1.502,0.4 2.27,0.4c0.45,0 0.843,-0.042 1.176,-0.117c0.334,-0.083 0.609,-0.192 0.835,-0.342c0.225,-0.142 0.392,-0.317 0.5,-0.509c0.109,-0.192 0.167,-0.4 0.167,-0.626c0,-0.308 -0.092,-0.584 -0.267,-0.826c-0.175,-0.242 -0.417,-0.467 -0.717,-0.667c-0.309,-0.209 -0.668,-0.409 -1.093,-0.592c-0.418,-0.192 -0.868,-0.393 -1.352,-0.584c-1.235,-0.518 -2.153,-1.144 -2.753,-1.886c-0.61,-0.743 -0.91,-1.635 -0.91,-2.687c0,-0.826 0.167,-1.527 0.492,-2.119c0.334,-0.592 0.776,-1.076 1.352,-1.46c0.567,-0.384 1.227,-0.668 1.977,-0.843c0.751,-0.183 1.544,-0.275 2.378,-0.275c0.818,0 1.544,0.05 2.178,0.15c0.634,0.1 1.218,0.25 1.76,0.459l0,3.287c-0.267,-0.183 -0.55,-0.342 -0.867,-0.484c-0.309,-0.141 -0.626,-0.25 -0.96,-0.35c-0.333,-0.092 -0.659,-0.159 -0.984,-0.2c-0.326,-0.042 -0.634,-0.067 -0.926,-0.067c-0.409,0 -0.776,0.042 -1.102,0.117c-0.334,0.083 -0.609,0.192 -0.842,0.325c-0.226,0.134 -0.401,0.301 -0.526,0.501c-0.125,0.192 -0.184,0.417 -0.184,0.659c0,0.267 0.067,0.501 0.201,0.709c0.141,0.209 0.333,0.409 0.592,0.592c0.259,0.184 0.576,0.368 0.943,0.551c0.367,0.175 0.784,0.359 1.243,0.559c0.634,0.267 1.193,0.543 1.702,0.843c0.501,0.292 0.935,0.634 1.293,1.009c0.359,0.376 0.643,0.801 0.826,1.285c0.192,0.468 0.284,1.027 0.284,1.669Z" style="fill:#fff;fill-rule:nonzero;"/><path d="M26.666,26.862c0.017,-0.008 0.033,-0.025 0.05,-0.033l0,0.033l-0.05,0Z" style="fill:#fff;fill-rule:nonzero;"/><path d="M0,0.138l26.716,0.008l0,8.252l0.008,0l0,-8.26l-26.724,0Z" style="fill:#fff;fill-rule:nonzero;"/><path d="M26.716,0.138l0,8.252c-1.852,-1.118 -3.896,-1.886 -6.049,-1.886c-8.193,0 -14.835,10.98 -14.835,10.98c0,0 3.63,6.158 8.836,9.37l-14.668,0l0,-26.716l26.716,0Z" style="fill:#fff;fill-rule:nonzero;"/><path d="M26.716,13.346l0,8.577l0.008,-0.009l-0.008,-8.568c0.008,0 0.008,0 0,0Z" style="fill:#fff;fill-rule:nonzero;"/><path d="M20.667,10.217c-4.097,0 -7.417,3.321 -7.417,7.417c0,4.089 3.32,7.418 7.417,7.418c2.495,0 4.706,-1.235 6.049,-3.129l0,-8.577c-1.343,-1.894 -3.546,-3.129 -6.049,-3.129Zm0.292,11.13c-1.836,0.184 -3.646,-1.218 -3.93,-3.037c-0.359,-1.777 0.801,-3.696 2.545,-4.197c0.325,-0.108 0.659,-0.167 0.993,-0.175c1.452,-0.033 2.912,0.826 3.487,2.186c0.217,0.476 0.326,1.001 0.326,1.527c0.042,1.877 -1.552,3.596 -3.421,3.696Z" style="fill:#fff;fill-rule:nonzero;"/><path d="M26.716,26.829c-0.017,0.008 -0.033,0.025 -0.05,0.033l0.058,0l-0.008,-0.033c0.008,-0.009 0.008,-0.009 0,0Z" style="fill:#fff;fill-rule:nonzero;"/></svg>